<?xml version="1.0" standalone="no"?>
<!DOCTYPE svg PUBLIC "-//W3C//DTD SVG 20010904//EN"
 "http://www.w3.org/TR/2001/REC-SVG-20010904/DTD/svg10.dtd">
<svg version="1.0" xmlns="http://www.w3.org/2000/svg"
 width="1953.000000pt" height="1953.000000pt" viewBox="0 0 1953.000000 1953.000000"
 preserveAspectRatio="xMidYMid meet">
<metadata>
Created by potrace 1.11, written by Peter Selinger 2001-2013
</metadata>
<g transform="translate(0.000000,1953.000000) scale(0.100000,-0.100000)"
fill="#000000" stroke="none">
<path d="M11535 16593 c-821 -28 -1632 -149 -2480 -370 -259 -67 -755 -218
-755 -229 0 -3 33 -3 73 0 87 7 543 36 1812 116 523 32 974 61 1003 64 l52 5
0 -323 0 -323 -112 -6 c-272 -16 -798 -47 -848 -52 -30 -2 -129 -7 -220 -11
-91 -4 -177 -7 -192 -8 l-28 -2 2 140 c0 78 -4 152 -10 166 -5 14 -27 41 -47
60 l-36 35 -97 -2 c-53 -1 -112 -5 -130 -8 -43 -8 -117 -76 -132 -121 -17 -50
-6 -90 45 -169 46 -72 59 -125 30 -125 -45 0 -1068 -61 -1112 -66 l-51 -6 -6
43 c-4 24 -13 107 -20 184 -32 309 -39 370 -46 378 -17 20 -615 -213 -1040
-405 -271 -123 -920 -456 -920 -473 0 -7 125 50 138 62 13 12 27 17 45 14 4 0
7 4 7 10 0 5 4 8 10 4 5 -3 26 2 47 11 85 36 164 57 216 57 15 0 27 3 27 7 0
4 7 7 15 7 8 0 15 -7 15 -16 0 -14 2 -14 10 -1 7 11 10 12 10 2 0 -19 -109
-126 -150 -147 -36 -18 -60 -39 -60 -50 0 -4 7 -5 15 -1 32 12 13 -4 -42 -35
-32 -18 -67 -41 -78 -52 -11 -10 -54 -37 -95 -59 -79 -44 -204 -122 -226 -141
-7 -7 -70 -48 -139 -92 -134 -84 -203 -134 -297 -213 -74 -62 -447 -317 -567
-387 -28 -16 -51 -33 -51 -37 0 -5 -4 -8 -9 -8 -5 0 -48 -24 -97 -53 -49 -29
-134 -77 -189 -106 -55 -29 -113 -65 -130 -81 -16 -15 -65 -53 -107 -84 -42
-31 -80 -60 -83 -66 -4 -6 -10 -8 -15 -5 -4 3 -26 -12 -47 -33 -90 -85 -334
-262 -362 -262 -6 0 -11 -4 -11 -10 0 -5 -6 -10 -13 -10 -8 0 -22 -9 -33 -21
-31 -34 -69 -50 -84 -36 -10 9 -11 9 -6 0 3 -6 2 -14 -4 -18 -16 -10 -23 21
-10 47 8 14 -7 4 -38 -26 -41 -40 -57 -66 -90 -150 -22 -55 -45 -128 -51 -160
-11 -62 -15 -156 -6 -156 3 0 38 16 78 36 77 37 62 19 -31 -38 -28 -18 -52
-39 -52 -46 0 -8 6 -12 13 -9 6 3 113 49 237 102 255 110 351 148 348 137 -2
-12 23 -66 35 -74 9 -6 9 -8 -1 -8 -10 0 -9 -5 3 -17 16 -16 16 -18 -2 -32
-10 -9 -144 -69 -296 -135 -152 -65 -277 -123 -277 -129 0 -6 11 -25 25 -43
l26 -33 52 23 c29 13 93 43 142 66 115 54 366 170 370 170 1 0 2 -18 1 -40 0
-22 -4 -40 -7 -40 -4 0 -10 -7 -13 -16 -3 -9 -2 -12 5 -8 6 3 5 -4 -3 -16 -8
-13 -61 -45 -128 -77 -63 -30 -117 -58 -120 -62 -3 -4 -49 -25 -104 -48 l-99
-41 44 -25 c71 -42 158 -78 239 -98 68 -18 109 -20 430 -18 339 1 355 0 353
-18 -1 -10 -14 -97 -27 -193 -76 -530 -145 -1230 -162 -1650 -4 -91 -10 -171
-14 -178 -6 -12 -178 138 -420 365 l-55 52 32 1 c99 1 108 28 107 315 0 209
-12 337 -33 358 -56 56 -758 63 -1161 11 -114 -14 -201 -35 -230 -54 -13 -8
-15 -43 -14 -217 0 -246 16 -376 48 -408 27 -27 76 -35 266 -45 80 -4 165 -13
190 -20 45 -12 360 -8 558 7 l82 6 -55 58 c-30 32 -55 64 -55 73 0 19 40 58
57 54 7 -2 61 -50 120 -108 59 -57 158 -152 218 -210 61 -58 157 -150 213
-204 l102 -99 -24 -26 c-36 -38 -126 -183 -120 -193 3 -5 10 -5 16 -2 7 4 8 2
4 -4 -4 -7 -14 -12 -21 -12 -9 0 -12 -6 -8 -16 4 -11 12 -14 27 -9 43 14 150
13 174 -2 14 -8 34 -12 48 -9 16 4 24 2 24 -6 0 -9 3 -8 10 2 6 10 10 11 10 3
0 -7 7 -13 16 -13 9 0 12 -5 8 -11 -5 -8 0 -10 17 -6 13 3 31 2 39 -3 13 -9
13 -10 0 -10 -13 0 -13 -2 0 -9 8 -6 17 -8 21 -5 4 2 10 0 14 -6 9 -14 31 -12
48 4 8 8 57 22 108 30 52 9 107 18 122 21 17 3 26 1 22 -5 -3 -6 -1 -10 4 -10
6 0 11 4 11 9 0 10 43 19 125 26 28 2 99 10 158 16 100 12 112 11 143 -6 30
-16 50 -17 206 -11 95 4 198 9 228 12 540 41 3525 96 3505 64 -4 -6 12 -10 42
-9 41 1 44 2 18 8 -16 4 27 7 97 7 70 1 125 -2 123 -6 -3 -5 2 -11 11 -14 8
-3 12 -2 9 4 -9 14 9 12 23 -2 9 -9 12 -9 12 1 0 10 12 11 48 7 26 -3 126 -8
222 -11 242 -7 372 -14 394 -21 13 -4 16 -2 11 6 -5 9 -3 10 11 3 11 -6 82
-11 159 -12 77 -2 142 -4 145 -6 3 -1 61 -6 130 -10 69 -3 148 -8 175 -10 28
-2 109 -6 180 -10 72 -3 182 -10 245 -16 63 -6 149 -12 190 -15 41 -3 90 -9
109 -14 19 -5 38 -7 42 -4 19 11 381 -51 452 -78 44 -17 35 -56 -18 -75 -79
-29 -497 -94 -512 -80 -3 3 -15 2 -28 -3 -12 -5 -74 -12 -136 -15 -121 -7
-141 -8 -344 -23 -71 -6 -133 -8 -138 -5 -4 2 -47 0 -95 -6 -48 -6 -161 -13
-252 -16 -91 -3 -182 -8 -203 -10 -20 -3 -106 -5 -190 -6 -85 0 -160 -4 -167
-9 -8 -5 -22 -4 -33 2 -11 6 -17 6 -13 0 3 -6 -38 -10 -107 -11 -61 -1 -119
-2 -127 -2 -8 0 -245 0 -526 0 -280 0 -674 -4 -875 -9 -200 -6 -485 -13 -634
-16 -148 -3 -310 -6 -358 -8 -51 -2 -83 0 -75 5 9 6 9 9 1 9 -6 0 -15 -5 -18
-10 -5 -8 -11 -7 -21 1 -10 8 -14 8 -14 0 0 -15 -27 -14 -32 0 -3 9 -10 9 -26
0 -12 -6 -22 -8 -22 -3 0 12 -50 10 -69 -2 -10 -6 -12 -5 -7 2 5 8 -2 12 -19
12 -14 0 -24 -3 -22 -7 3 -5 -6 -9 -19 -9 -13 -1 -21 2 -18 7 7 12 -3 11 -27
-1 -12 -7 -19 -7 -19 -1 0 5 -9 8 -20 6 -11 -2 -22 0 -25 5 -3 5 -12 7 -20 4
-8 -4 -13 -9 -10 -13 2 -4 -2 -8 -10 -8 -8 0 -15 4 -15 8 0 4 -17 5 -37 2 -21
-3 -42 -5 -48 -4 -5 0 -98 3 -205 6 -222 6 -932 41 -1030 51 -36 4 -83 8 -105
11 -22 2 -71 6 -110 8 -38 3 -83 7 -100 8 -16 2 -52 5 -80 6 -30 1 -43 5 -33
9 9 4 -31 8 -90 9 -66 1 -108 6 -110 12 -2 6 -8 9 -13 6 -14 -9 -170 18 -156
27 7 5 0 6 -15 2 -20 -4 -35 0 -54 15 -36 29 -49 26 -65 -11 -7 -17 -15 -26
-17 -19 -3 9 -10 7 -25 -6 -14 -12 -18 -13 -12 -3 8 13 6 13 -8 1 -9 -7 -23
-11 -31 -8 -8 3 -16 -2 -19 -14 -3 -13 -13 -20 -24 -18 -10 1 -26 -1 -35 -4
-10 -4 -26 -10 -35 -14 -20 -7 -29 -10 -40 -12 -5 -1 -1 -6 7 -11 12 -8 11
-10 -7 -10 -32 0 -93 -31 -93 -47 0 -8 4 -12 9 -9 5 3 12 -13 16 -37 9 -45 8
-44 18 -67 18 -41 35 -114 30 -128 -4 -9 -2 -13 4 -9 8 5 30 -77 38 -143 1 -8
5 -22 8 -30 8 -18 45 -228 52 -290 2 -25 11 -90 19 -145 16 -108 53 -446 60
-560 3 -38 10 -122 15 -185 9 -102 20 -290 26 -450 1 -30 6 -127 10 -215 10
-192 11 -878 1 -1060 -4 -71 -7 -141 -7 -155 -1 -27 -19 -282 -22 -315 -3 -28
-48 -125 -58 -125 -4 0 -11 -10 -15 -22 -13 -41 -56 -98 -90 -119 -49 -30 -94
-21 -138 27 -20 22 -36 43 -36 48 0 13 -47 65 -54 59 -3 -3 -9 8 -12 25 -4 18
-10 32 -14 32 -4 0 -11 21 -15 47 -3 27 -9 62 -12 78 -3 17 -6 46 -7 65 -1 19
-4 40 -7 45 -4 6 -5 21 -4 35 1 14 0 29 -3 35 -4 5 -7 23 -8 40 -1 16 -5 48
-9 70 -4 22 -9 60 -11 85 -7 102 -14 164 -19 168 -16 16 28 -559 71 -926 l17
-143 216 5 c119 3 428 8 686 11 259 3 569 7 690 10 121 3 328 7 460 10 132 3
375 8 540 11 l300 7 32 -27 c18 -15 42 -40 53 -55 l19 -28 -25 -67 c-29 -73
-36 -79 -138 -112 -53 -16 -64 -23 -49 -28 11 -4 28 -15 37 -25 16 -18 16 -20
-9 -39 -35 -28 -62 -30 -710 -47 -308 -9 -866 -24 -1240 -35 -374 -11 -732
-20 -795 -21 -155 -3 -154 -3 -146 -53 8 -45 48 -121 68 -129 7 -2 155 1 328
9 514 21 510 21 510 4 0 -143 51 -525 88 -659 l17 -64 76 2 c147 4 269 -33
297 -91 10 -22 10 -31 0 -48 -26 -43 -144 -86 -253 -93 -36 -2 -40 -5 -37 -26
4 -43 99 -224 152 -294 65 -83 172 -158 273 -189 97 -31 284 -33 367 -4 77 26
156 68 215 113 129 99 209 403 222 845 l6 206 31 6 c17 3 251 8 520 12 l488 7
-31 24 c-17 14 -38 38 -46 53 -48 93 -78 381 -79 750 -1 267 0 276 22 317 12
24 35 49 50 57 78 40 533 55 1732 55 1226 1 1782 -16 1867 -56 21 -10 40 -31
55 -61 22 -46 23 -55 22 -312 -2 -410 -38 -696 -99 -776 -14 -18 -25 -35 -25
-38 0 -2 93 -5 208 -6 114 0 331 -5 482 -10 151 -5 300 -9 331 -10 l56 0 6
-207 c9 -305 56 -584 125 -735 69 -153 264 -258 477 -258 96 0 214 27 288 67
167 90 298 299 392 624 62 215 115 539 115 709 0 41 4 81 9 89 8 12 58 12 338
2 180 -6 351 -14 380 -17 47 -6 54 -4 76 20 26 28 63 133 71 202 l5 42 -232 6
c-128 3 -500 8 -827 11 -1733 15 -1725 15 -1761 44 -19 15 -20 20 -8 39 7 12
20 23 29 25 8 2 -12 11 -45 21 -95 29 -109 39 -139 106 l-27 60 28 43 29 42
379 -3 c209 -2 607 -7 885 -12 1027 -20 1590 -24 1590 -12 0 6 9 92 20 189 82
737 127 1781 117 2768 -5 551 -14 769 -41 980 -13 99 -13 100 10 121 47 44 41
144 -17 318 -36 107 -119 284 -182 386 l-46 75 263 263 262 263 178 -10 c227
-14 420 -14 471 0 22 6 114 15 205 19 184 10 239 22 257 60 21 45 36 202 37
397 1 220 3 215 -85 238 -283 74 -1251 87 -1319 19 -23 -23 -34 -138 -35 -359
0 -300 3 -310 101 -316 39 -3 46 1 120 70 73 67 82 72 113 67 19 -3 38 -9 42
-13 6 -7 -558 -545 -637 -608 l-26 -20 -34 37 c-33 36 -34 41 -34 116 0 93
-24 467 -45 712 -59 667 -159 1385 -296 2112 l-22 116 25 31 c52 61 74 168 34
168 -8 0 -12 -7 -9 -16 5 -13 3 -14 -8 -3 -7 6 -33 12 -58 12 -50 0 -266 20
-546 51 -99 10 -238 22 -310 24 -71 3 -184 7 -250 10 -66 3 -190 7 -275 10
-85 3 -195 7 -245 10 -49 2 -202 7 -340 11 -137 3 -254 8 -258 11 -4 3 -416 7
-915 9 -499 2 -983 8 -1077 13 -175 10 -1431 7 -1520 -3 -46 -5 -341 -22 -815
-46 -102 -5 -225 -12 -275 -14 -49 -3 -184 -8 -300 -11 -115 -3 -246 -8 -290
-10 -122 -8 -880 -6 -963 1 -40 4 -75 10 -77 14 -12 19 144 52 308 66 48 4 85
9 83 12 -3 2 -111 -3 -241 -13 -130 -10 -238 -15 -242 -12 -14 15 50 179 97
251 88 130 214 220 389 275 143 46 396 83 891 131 275 27 262 24 250 56 -13
33 -13 71 1 79 14 9 54 -29 69 -66 11 -26 17 -29 60 -29 25 0 50 3 53 6 4 4
-7 21 -23 37 -27 27 -39 57 -25 57 3 0 28 -21 56 -46 l49 -47 303 22 c322 23
368 26 632 41 462 26 774 34 1370 34 661 0 1085 -13 1620 -49 39 -2 115 -7
170 -10 55 -4 213 -15 350 -26 273 -21 336 -23 334 -11 -5 29 35 73 93 103 58
29 60 28 52 -55 l-7 -74 54 -6 c30 -4 179 -20 333 -37 l278 -30 82 54 c122 81
347 252 482 364 512 429 921 931 1109 1360 53 122 93 259 79 273 -5 5 -87 29
-181 54 l-172 44 -173 -49 c-182 -52 -281 -82 -438 -129 -187 -57 -757 -232
-870 -267 -191 -59 -191 -59 -207 -38 -15 21 -9 23 497 199 118 41 312 108
430 149 118 41 286 99 372 128 87 30 158 57 158 60 0 3 -80 22 -177 42 -727
151 -1519 217 -2288 190z m2559 -650 c-67 -152 -104 -221 -121 -225 -10 -3
-52 -15 -93 -26 -41 -12 -156 -44 -255 -72 -379 -107 -468 -131 -473 -126 -3
3 4 9 14 13 30 11 587 235 706 284 59 24 105 45 103 47 -2 2 -189 -53 -417
-121 -515 -156 -488 -149 -494 -132 -3 7 -19 19 -35 25 -16 7 -29 17 -29 22 0
5 -10 12 -21 17 -16 5 85 39 387 129 225 67 483 144 574 171 91 28 168 50 172
50 4 1 -4 -25 -18 -56z m-4339 -203 c38 -15 53 -62 60 -191 3 -63 8 -133 11
-157 5 -41 4 -43 -30 -57 -24 -10 -71 -15 -145 -15 -95 0 -112 2 -119 18 -31
58 -53 301 -33 351 16 37 28 42 116 51 106 11 112 11 140 0z m1932 -452 c6 -7
13 -24 15 -38 3 -14 7 -31 9 -38 3 -10 -31 -14 -162 -18 l-166 -5 -7 38 c-9
59 -8 61 27 66 83 10 275 7 284 -5z m-657 -42 c0 -28 -5 -48 -12 -51 -14 -5
-329 -21 -568 -30 -85 -3 -191 -8 -235 -10 -400 -21 -1807 -54 -1977 -47 -78
4 -78 4 -78 32 0 32 5 33 230 50 614 44 1590 84 2428 99 l212 3 0 -46z m133
17 c-13 -2 -33 -2 -45 0 -13 2 -3 4 22 4 25 0 35 -2 23 -4z m784 -24 c91 -44
141 -109 96 -126 -20 -8 -142 53 -196 98 -31 26 -36 34 -25 46 15 19 63 12
125 -18z m140 9 c27 -29 56 -88 48 -96 -9 -10 -53 40 -70 81 -17 42 -8 48 22
15z m-4014 -105 c-13 -2 -33 -2 -45 0 -13 2 -3 4 22 4 25 0 35 -2 23 -4z
m-213 -17 c0 -9 -20 -15 -62 -20 -102 -10 -148 -16 -238 -27 -61 -7 -94 -7
-114 1 -16 6 -26 13 -23 16 7 8 308 42 380 43 42 1 57 -3 57 -13z m103 7 c-7
-2 -21 -2 -30 0 -10 3 -4 5 12 5 17 0 24 -2 18 -5z m-867 -119 c18 -70 -17
-179 -69 -218 -26 -19 -28 -19 -45 -3 -34 35 -7 164 45 219 34 35 61 36 69 2z
m214 4 c0 -25 -104 -133 -119 -123 -28 17 11 95 63 126 40 25 56 24 56 -3z
m3890 -18 c0 -9 -15 -12 -55 -12 -30 0 -36 2 -30 12 3 6 24 10 46 10 21 0 39
-4 39 -10z m-634 -138 c20 -25 35 -59 40 -87 l6 -45 204 0 204 0 0 -32 0 -31
-204 6 -205 6 -29 -52 c-16 -29 -36 -58 -43 -64 -19 -16 -83 7 -120 43 -28 27
-29 29 -27 126 2 95 3 99 32 127 33 32 72 51 96 48 8 -1 29 -21 46 -45z
m-2531 18 c8 -13 -38 -24 -66 -15 -17 6 -19 9 -8 16 19 12 66 11 74 -1z m482
-60 c102 -62 95 -240 -10 -295 l-39 -20 -29 35 c-16 19 -32 44 -35 56 -5 20
-10 21 -105 16 -89 -4 -101 -3 -114 14 -25 34 -1 44 105 44 l97 0 7 48 c7 54
48 122 74 122 9 0 31 -9 49 -20z m4003 -21 c0 -6 -4 -7 -10 -4 -5 3 -10 11
-10 16 0 6 5 7 10 4 6 -3 10 -11 10 -16z m-522 -85 c138 -4 192 -9 189 -18 -5
-15 -781 -22 -811 -7 -12 5 -30 12 -41 14 -16 4 -15 5 5 6 14 1 32 6 40 12 15
9 132 8 618 -7z m262 -60 c0 -2 -9 0 -20 6 -11 6 -20 13 -20 16 0 2 9 0 20 -6
11 -6 20 -13 20 -16z m163 -91 c48 -30 87 -57 87 -59 0 -3 -15 3 -32 14 -18
11 -72 43 -120 71 -49 29 -88 54 -88 57 0 7 55 -23 153 -83z m-4573 58 c0 -17
-10 -20 -107 -26 -60 -3 -128 -8 -153 -10 -68 -6 -453 -20 -555 -20 -75 0 -90
3 -93 16 -3 14 15 17 130 24 343 19 582 31 676 34 95 2 102 1 102 -18z m1620
-1725 c0 -9 22 -15 77 -20 65 -6 79 -5 89 9 9 12 22 15 49 11 21 -4 40 -8 44
-10 6 -4 464 -26 846 -41 77 -3 176 -8 220 -10 44 -3 231 -12 415 -21 184 -9
336 -20 338 -25 2 -5 8 -9 13 -9 6 0 7 5 4 10 -4 7 3 9 22 5 32 -7 59 -12 88
-15 11 -1 14 -4 8 -7 -10 -3 -9 -9 3 -20 14 -15 14 -17 -8 -29 l-23 -12 27 -7
c16 -4 35 -5 43 -1 8 3 15 1 15 -4 0 -5 8 -7 18 -4 14 5 14 4 2 -4 -8 -6 -18
-8 -22 -6 -4 3 -8 0 -8 -6 0 -6 -10 -8 -22 -5 -14 3 -35 -2 -51 -13 l-28 -19
33 -8 c32 -7 33 -7 8 -15 -14 -4 -18 -9 -10 -10 8 -1 23 -3 34 -5 41 -8 63 18
25 30 -16 5 -18 10 -9 18 9 9 16 6 31 -13 10 -14 23 -30 28 -36 6 -7 7 -14 4
-18 -3 -3 3 -13 13 -23 11 -10 15 -15 10 -10 -15 11 -28 8 -20 -5 4 -7 3 -8
-5 -4 -6 4 -8 12 -5 18 5 7 1 9 -9 5 -10 -4 -16 -2 -14 5 1 6 -4 13 -12 16 -8
2 -11 1 -8 -4 3 -5 0 -16 -6 -25 -11 -14 -35 -14 -242 -2 -336 19 -678 21
-738 4 -59 -17 -104 -66 -113 -121 l-7 -40 -121 0 -122 0 0 138 c-1 165 -9
190 -71 208 -72 21 -222 43 -378 55 -164 13 -562 6 -655 -11 -30 -6 -68 -12
-85 -15 -16 -2 -45 -6 -63 -9 -18 -3 -52 -8 -75 -12 -47 -7 -76 -12 -109 -19
-13 -2 -37 -6 -55 -9 -18 -2 -38 -8 -45 -12 -11 -7 -26 -11 -65 -16 -21 -2
-26 -63 -20 -227 6 -170 17 -223 49 -245 21 -15 21 -15 -8 -22 -307 -72 -397
-96 -584 -154 -139 -43 -165 -48 -245 -47 -106 0 -132 -10 -137 -55 -3 -30 -8
-33 -128 -83 -211 -87 -553 -252 -705 -340 -332 -191 -693 -466 -940 -714
l-100 -101 496 0 c372 0 498 3 507 12 9 9 12 9 12 0 0 -7 -2 -12 -4 -12 -11 0
-795 -274 -826 -289 -28 -13 -36 -22 -38 -49 -4 -40 19 -79 54 -92 26 -10 143
29 944 315 179 64 336 115 350 114 14 0 30 0 35 1 6 1 34 1 64 0 42 -1 52 1
46 12 -6 10 -5 11 6 1 7 -7 22 -13 33 -13 11 0 62 -27 113 -60 52 -33 96 -60
99 -60 6 0 278 -183 395 -267 221 -157 249 -177 246 -179 -1 -1 -249 -5 -552
-8 -302 -4 -611 -9 -685 -11 -74 -3 -340 -10 -590 -16 -250 -6 -565 -14 -700
-18 -347 -10 -647 -6 -694 8 -64 21 -86 50 -86 118 0 175 117 1109 143 1141 8
10 31 13 76 10 58 -2 66 -1 65 15 -1 10 1 16 4 13 3 -3 22 76 42 177 72 352
149 609 235 782 116 234 244 319 541 360 66 9 144 23 174 31 109 27 442 63
820 89 455 31 727 44 1430 68 41 2 229 4 418 5 283 2 342 0 342 -12z m2260
-142 c0 -2 -7 -4 -15 -4 -8 0 -15 4 -15 10 0 5 7 7 15 4 8 -4 15 -8 15 -10z
m5 -204 c3 -5 1 -10 -4 -10 -6 0 -11 5 -11 10 0 6 2 10 4 10 3 0 8 -4 11 -10z
m2042 -1169 c0 -11 -5 -18 -9 -15 -4 3 -5 11 -1 19 7 21 12 19 10 -4z m-4302
-11 c466 0 624 -3 619 -12 -5 -7 -3 -8 7 -2 8 4 42 9 77 10 54 1 62 -1 57 -15
-3 -9 4 -5 16 9 11 14 18 20 15 14 -3 -7 1 -15 10 -18 8 -3 12 -2 9 4 -3 6 -1
10 5 10 6 0 9 -8 6 -17 -36 -115 -74 -347 -63 -378 4 -8 18 -15 32 -15 14 0
25 -6 25 -12 0 -10 3 -9 9 1 7 11 19 9 68 -8 33 -12 74 -21 91 -21 18 0 40 -4
50 -9 18 -10 147 -35 240 -47 28 -4 52 -10 52 -14 0 -4 15 -6 33 -5 17 2 37
-1 42 -5 10 -7 115 -23 149 -22 18 1 18 1 0 -13 -15 -10 -22 -11 -33 -2 -12 9
-13 9 -7 -1 9 -15 32 -6 -409 -157 -581 -198 -658 -227 -674 -256 -12 -22 -12
-29 0 -54 8 -15 25 -37 39 -47 25 -18 26 -18 155 26 72 24 299 103 505 176
206 73 382 135 390 138 8 2 -26 -20 -77 -51 -172 -103 -325 -234 -433 -371
l-47 -59 -862 0 c-755 1 -864 3 -879 16 -27 24 -341 239 -517 354 -88 58 -169
111 -180 119 -11 8 -40 28 -64 44 -33 22 -40 30 -25 31 10 0 61 0 111 1 51 0
91 3 89 7 -3 4 3 7 12 8 9 0 112 39 227 85 116 47 288 112 383 144 l172 59 -6
45 c-3 25 -15 88 -26 140 -11 52 -21 106 -22 118 -2 13 -9 28 -17 33 -11 7
-11 9 -1 9 7 0 10 5 6 12 -4 6 -3 8 4 4 6 -3 292 -6 637 -6z m3669 2 c2 -4 -4
-8 -14 -8 -10 0 -16 4 -14 8 3 4 9 8 14 8 5 0 11 -4 14 -8z m638 -12 c20 -1
21 -6 42 -135 38 -231 116 -906 116 -1005 0 -28 -5 -60 -10 -71 -32 -58 -141
-72 -512 -63 l-287 7 -65 87 c-151 203 -402 395 -646 495 -94 38 -101 43 -57
38 17 -2 26 0 20 3 -7 3 -13 11 -13 17 0 6 7 4 17 -5 15 -16 17 -16 30 0 12
16 13 16 7 0 -5 -15 24 -17 397 -18 l402 -1 -7 155 c-11 256 -39 384 -103 464
-19 23 -30 42 -24 42 5 0 12 -4 16 -10 3 -5 13 -6 22 -3 11 4 14 3 9 -6 -6
-10 -4 -10 12 0 12 7 19 15 17 19 -3 4 563 -4 617 -10z m-9782 -81 c145 -18
141 -50 -9 -70 -107 -15 -525 -7 -568 10 -18 7 -33 17 -33 22 0 38 408 64 610
38z m11479 1 c46 -6 97 -17 115 -24 l31 -14 -40 -17 c-33 -15 -77 -19 -246
-23 -344 -7 -563 36 -371 74 73 15 403 17 511 4z m-391 -407 c-16 -2 -28 -9
-28 -14 0 -5 -10 -9 -22 -9 -18 0 -20 -2 -9 -9 12 -8 9 -11 -13 -17 -17 -4
-25 -11 -22 -20 3 -8 2 -13 -2 -12 -17 4 -72 -15 -84 -30 -9 -11 -10 -14 0 -8
6 4 12 5 12 3 0 -3 -18 -15 -41 -26 -22 -12 -38 -17 -34 -11 3 5 1 10 -6 10
-16 0 -4 99 14 118 18 18 94 30 187 29 41 0 63 -2 48 -4z m-11564 -48 c-4 -8
-11 -15 -16 -15 -6 0 -5 6 2 15 7 8 14 15 16 15 2 0 1 -7 -2 -15z m8440 -230
c98 -10 252 -49 369 -95 201 -78 374 -199 532 -370 l30 -33 -165 6 -165 5
-185 132 c-102 73 -259 182 -350 242 -188 126 -195 131 -160 124 14 -3 56 -8
94 -11z m-158 -116 c236 -160 502 -347 509 -359 4 -7 -35 -8 -107 -5 -100 5
-1203 24 -1449 25 l-94 1 80 75 c191 179 431 302 700 359 174 37 156 42 361
-96z m2451 -643 c-5 -12 -2 -12 20 -1 26 14 79 10 98 -6 5 -5 23 -9 41 -9 43
0 64 -9 64 -26 0 -8 9 -32 20 -54 25 -49 25 -60 0 -60 -10 0 -24 -9 -30 -20
-6 -11 -21 -20 -34 -20 -31 0 -39 -23 -15 -43 10 -9 19 -21 19 -26 0 -11 -124
-26 -139 -16 -6 3 -11 1 -11 -4 0 -19 -27 -12 -33 8 -3 13 -1 18 8 14 18 -6
13 26 -6 38 -22 14 -37 11 -41 -8 -3 -15 -9 -13 -37 14 -30 30 -31 34 -17 49
9 8 13 20 10 26 -4 6 2 8 17 4 13 -3 19 -3 12 0 -16 7 -5 102 14 129 14 19 15
19 9 -5 -5 -23 -4 -23 6 3 12 27 35 40 25 13z m-9164 -183 c-7 -2 -19 -2 -25
0 -7 3 -2 5 12 5 14 0 19 -2 13 -5z m9287 -173 c0 -5 -7 -10 -16 -10 -8 0 -12
5 -9 10 3 6 10 10 16 10 5 0 9 -4 9 -10z m-57 -17 c-7 -2 -19 -2 -25 0 -7 3
-2 5 12 5 14 0 19 -2 13 -5z m-23 -73 c0 -5 21 -10 47 -10 39 0 51 -5 70 -27
13 -14 23 -32 23 -40 0 -7 5 -13 10 -13 6 0 10 8 10 17 0 14 3 14 12 5 10 -10
10 -15 -2 -22 -11 -7 -12 -14 -3 -32 16 -35 33 -92 33 -111 0 -9 5 -17 10 -17
6 0 8 -12 4 -27 -4 -23 -3 -25 6 -13 9 12 11 10 6 -11 -3 -14 -1 -41 5 -60 6
-19 13 -47 15 -64 3 -16 10 -48 15 -70 6 -22 12 -67 14 -100 2 -33 8 -80 14
-104 5 -24 7 -49 5 -56 -3 -7 1 -19 8 -26 9 -10 13 -47 13 -124 0 -60 6 -193
13 -295 14 -205 18 -829 7 -1012 -6 -86 -5 -118 3 -118 7 0 11 -11 10 -24 -1
-14 -6 -22 -10 -20 -4 3 -8 1 -8 -5 0 -5 5 -13 10 -16 6 -3 10 -12 10 -18 0
-7 -4 -6 -10 3 -5 8 -10 12 -10 8 0 -3 -3 -14 -7 -24 -4 -12 -3 -15 5 -10 8 5
10 2 6 -8 -4 -10 -1 -16 7 -16 9 -1 8 -4 -3 -11 -10 -5 -18 -15 -18 -20 0 -6
6 -7 13 -3 10 6 10 4 0 -7 -19 -20 -16 -33 5 -18 15 12 16 12 5 -2 -7 -9 -9
-20 -5 -24 4 -5 1 -5 -6 0 -11 5 -13 -2 -11 -32 2 -21 -1 -44 -5 -51 -5 -8 -1
-21 10 -33 16 -18 16 -19 1 -13 -14 5 -17 0 -17 -32 0 -21 -5 -87 -12 -147 -9
-82 -9 -110 0 -115 6 -5 9 -18 5 -31 -4 -17 -8 -19 -14 -9 -8 12 -15 -61 -11
-121 1 -14 -3 -30 -8 -37 -6 -6 -17 -65 -26 -130 -8 -66 -17 -127 -20 -136 -3
-10 0 -18 6 -18 13 0 5 -50 -9 -60 -4 -3 -8 -14 -9 -25 -6 -79 -17 -122 -39
-158 -3 -6 -1 -7 5 -3 16 10 15 -2 -1 -18 -7 -7 -43 -14 -82 -15 -38 -1 -72
-4 -75 -6 -3 -1 -34 3 -70 10 -36 7 -56 14 -45 14 14 1 16 4 7 9 -9 6 -4 14
18 30 16 13 30 28 30 35 0 7 12 23 25 36 24 22 25 29 25 128 0 57 -3 102 -8
99 -4 -2 -6 14 -4 36 3 24 0 43 -7 48 -11 6 -18 53 -20 133 -1 16 -5 26 -9 23
-5 -3 -9 10 -10 28 -1 18 -5 53 -11 77 -5 24 -9 51 -9 59 0 8 -8 92 -17 185
-9 94 -20 280 -24 415 -11 312 -17 329 -134 400 -31 19 -60 42 -63 52 -3 10
-10 16 -15 13 -5 -4 -9 1 -9 9 0 9 6 16 13 16 8 0 7 4 -3 10 -10 7 -12 12 -4
18 6 4 14 48 17 97 4 58 3 85 -3 75 -13 -20 -12 -13 4 67 8 37 17 131 20 208
4 77 9 150 13 163 3 15 1 27 -8 32 -9 6 -10 12 -2 22 13 17 37 143 29 156 -3
5 -2 34 4 63 5 30 11 86 13 125 3 39 9 79 15 90 5 10 15 60 21 109 7 50 17
103 22 119 7 21 6 32 -3 37 -9 6 -8 10 5 15 12 4 17 17 17 43 0 20 12 68 27
106 14 39 25 83 25 98 -1 15 3 25 7 22 5 -3 7 4 4 15 -3 11 0 20 6 20 6 0 11
5 11 10 0 6 10 24 22 40 17 23 19 33 10 42 -7 7 -12 21 -12 33 1 20 1 20 15 1
15 -20 15 -20 30 0 19 25 19 36 -1 32 -10 -2 -19 3 -21 10 -3 7 4 12 16 12 12
0 21 -4 21 -10z m220 -162 c0 -5 -4 -8 -10 -8 -5 0 -10 10 -10 23 0 18 2 19
10 7 5 -8 10 -18 10 -22z m-6790 -2561 l0 -692 -1260 0 -1260 0 0 693 0 692
1260 0 1260 0 0 -693z m6276 677 c-3 -9 -6 -320 -6 -692 l0 -677 -1260 0
-1260 0 0 693 0 692 1266 0 c1150 0 1266 -1 1260 -16z m651 -186 c-2 -13 -4
-3 -4 22 0 25 2 35 4 23 2 -13 2 -33 0 -45z m-27 -582 c0 -3 -4 -8 -10 -11 -5
-3 -10 -1 -10 4 0 6 5 11 10 11 6 0 10 -2 10 -4z m-1509 -2737 c104 -59 86
-128 -46 -167 -62 -19 -95 -20 -95 -3 0 4 14 50 30 103 l30 97 28 -9 c16 -4
39 -14 53 -21z"/>
<path d="M9552 12845 c-39 -6 -75 -15 -79 -18 -3 -4 30 -7 75 -7 75 0 82 2 82
20 0 11 -1 19 -2 19 -2 -1 -36 -7 -76 -14z"/>
<path d="M11610 12766 c0 -2 11 -6 25 -8 14 -3 25 -1 25 3 0 5 -11 9 -25 9
-14 0 -25 -2 -25 -4z"/>
<path d="M11690 12570 c-9 -6 -10 -10 -3 -10 6 0 15 5 18 10 8 12 4 12 -15 0z"/>
<path d="M5447 11339 c7 -7 15 -10 18 -7 3 3 -2 9 -12 12 -14 6 -15 5 -6 -5z"/>
<path d="M10130 11350 c-21 -7 -21 -8 -5 -9 11 0 27 4 35 9 18 11 5 11 -30 0z"/>
<path d="M13158 11333 c7 -3 16 -2 19 1 4 3 -2 6 -13 5 -11 0 -14 -3 -6 -6z"/>
<path d="M14326 9782 c-3 -5 8 -6 25 -4 16 2 29 6 29 8 0 8 -49 4 -54 -4z"/>
<path d="M14366 9757 c3 -10 9 -15 12 -12 3 3 0 11 -7 18 -10 9 -11 8 -5 -6z"/>
<path d="M14445 9660 c-3 -5 -1 -10 4 -10 6 0 11 5 11 10 0 6 -2 10 -4 10 -3
0 -8 -4 -11 -10z"/>
<path d="M14318 9603 c12 -2 32 -2 45 0 12 2 2 4 -23 4 -25 0 -35 -2 -22 -4z"/>
<path d="M6060 7273 c-85 -13 -170 -45 -170 -64 0 -6 -8 -18 -17 -27 -16 -16
37 -17 820 -20 l837 -2 0 -495 0 -495 -1055 0 -1055 0 0 494 0 495 36 3 36 3
-54 32 c-29 17 -65 35 -79 38 -22 5 -28 2 -37 -22 -26 -62 -32 -189 -32 -666
l0 -498 963 3 c929 3 963 4 1002 22 22 11 54 30 71 43 42 31 115 39 209 23 58
-10 78 -10 89 -1 26 21 33 213 29 789 l-3 352 -782 -1 c-431 -1 -794 -3 -808
-6z"/>
<path d="M6530 6691 c-96 -42 -211 -94 -255 -115 -311 -149 -367 -177 -361
-183 10 -10 70 -10 78 1 3 5 27 9 52 8 35 -2 46 1 46 13 0 8 5 15 11 15 5 0 7
-4 4 -10 -13 -21 83 2 97 23 3 6 24 11 45 11 21 1 41 4 44 9 3 4 32 11 65 16
32 5 50 9 39 11 -11 1 12 8 50 16 39 8 75 21 80 29 6 7 34 20 62 28 87 26 183
98 183 138 0 10 -6 24 -13 31 -8 7 -12 19 -9 26 8 26 -49 9 -218 -67z"/>
<path d="M5518 6343 c-30 -5 -37 -18 -14 -26 8 -3 22 3 32 14 9 10 15 18 13
18 -2 -1 -16 -4 -31 -6z"/>
<path d="M5583 6333 c9 -2 23 -2 30 0 6 3 -1 5 -18 5 -16 0 -22 -2 -12 -5z"/>
<path d="M12305 7270 c-65 -12 -138 -44 -143 -62 -2 -10 -8 -18 -13 -18 -5 0
-9 -7 -9 -15 0 -13 99 -15 830 -15 l830 0 0 -495 0 -495 -1054 0 -1054 0 -4
283 c-2 155 -2 378 0 495 l4 212 42 1 c22 0 34 3 26 6 -8 3 -17 9 -20 12 -12
15 -88 50 -114 53 -56 6 -59 -27 -63 -640 l-4 -543 963 3 963 3 45 24 c25 12
65 34 90 47 49 27 108 31 190 13 90 -19 97 -14 106 93 5 51 9 308 9 570 l0
478 -790 -1 c-434 -1 -808 -5 -830 -9z"/>
<path d="M12850 6713 c-298 -131 -660 -306 -660 -320 0 -7 5 -13 11 -13 5 0 8
3 6 8 -3 4 27 8 66 10 39 2 74 7 77 11 3 4 25 9 50 9 55 2 82 11 75 23 -6 9
21 14 63 10 12 -1 22 3 22 9 0 5 15 10 33 10 17 0 45 7 60 15 15 8 43 17 63
21 19 3 39 14 44 23 8 14 11 14 19 1 9 -12 11 -12 16 2 4 10 28 22 58 29 84
20 187 94 187 134 0 26 -21 73 -35 78 -5 2 -75 -25 -155 -60z"/>
<path d="M11770 6330 c0 -5 6 -10 14 -10 8 0 18 5 21 10 3 6 -3 10 -14 10 -12
0 -21 -4 -21 -10z"/>
<path d="M12085 14260 l-40 -19 48 0 c41 -1 47 2 47 19 0 24 -3 24 -55 0z"/>
<path d="M10193 13723 c15 -2 39 -2 55 0 15 2 2 4 -28 4 -30 0 -43 -2 -27 -4z"/>
<path d="M10290 13724 c35 -7 98 -9 94 -2 -3 5 -29 7 -57 7 -29 -1 -45 -3 -37
-5z"/>
<path d="M10533 13713 c9 -2 23 -2 30 0 6 3 -1 5 -18 5 -16 0 -22 -2 -12 -5z"/>
<path d="M10583 13714 c3 -3 52 -7 109 -8 59 -2 90 0 73 4 -36 9 -191 12 -182
4z"/>
<path d="M10878 13703 c29 -2 74 -2 100 0 26 2 2 3 -53 3 -55 0 -76 -1 -47 -3z"/>
<path d="M11248 13693 c7 -3 16 -2 19 1 4 3 -2 6 -13 5 -11 0 -14 -3 -6 -6z"/>
<path d="M11648 13673 c7 -3 16 -2 19 1 4 3 -2 6 -13 5 -11 0 -14 -3 -6 -6z"/>
<path d="M11688 13673 c7 -3 16 -2 19 1 4 3 -2 6 -13 5 -11 0 -14 -3 -6 -6z"/>
<path d="M11868 13663 c6 -2 18 -2 25 0 6 3 1 5 -13 5 -14 0 -19 -2 -12 -5z"/>
<path d="M12008 13653 c6 -2 18 -2 25 0 6 3 1 5 -13 5 -14 0 -19 -2 -12 -5z"/>
<path d="M12285 13635 c88 -7 210 -15 270 -19 61 -4 128 -9 150 -11 22 -3 92
-7 155 -10 63 -3 133 -8 155 -10 22 -2 78 -7 125 -10 47 -3 126 -10 175 -15
50 -5 124 -12 165 -15 82 -6 265 -29 375 -47 39 -6 78 -11 88 -10 9 0 15 -3
12 -8 -3 -4 4 -6 15 -3 15 4 17 9 10 24 -15 28 -21 29 -147 40 -374 30 -1606
110 -1670 108 -21 -1 34 -7 122 -14z"/>
<path d="M6058 13593 c7 -3 16 -2 19 1 4 3 -2 6 -13 5 -11 0 -14 -3 -6 -6z"/>
<path d="M5923 13583 c9 -2 23 -2 30 0 6 3 -1 5 -18 5 -16 0 -22 -2 -12 -5z"/>
<path d="M4000 13373 l-45 -46 42 33 c34 26 62 60 50 60 -2 0 -23 -21 -47 -47z"/>
<path d="M4780 9890 c0 -6 7 -10 15 -10 8 0 15 2 15 4 0 2 -7 6 -15 10 -8 3
-15 1 -15 -4z"/>
<path d="M12525 9739 c-4 -6 -5 -12 -2 -15 7 -7 37 7 37 17 0 13 -27 11 -35
-2z"/>
<path d="M4436 9504 c-9 -41 -16 -93 -16 -115 0 -41 21 -94 40 -101 6 -2 7
-23 0 -63 -14 -88 -10 -111 7 -35 8 36 15 73 16 83 1 9 5 17 10 17 4 0 6 4 3
9 -6 9 13 92 32 141 13 34 9 70 -9 81 -11 7 -11 9 0 9 21 0 -5 27 -38 38 l-28
10 -17 -74z"/>
<path d="M4700 9530 c0 -5 5 -10 10 -10 6 0 10 5 10 10 0 6 -4 10 -10 10 -5 0
-10 -4 -10 -10z"/>
<path d="M4447 9103 c-4 -3 -7 -20 -7 -36 0 -38 11 -28 15 13 3 32 2 34 -8 23z"/>
<path d="M4435 8989 c-4 -17 -3 -35 1 -39 5 -5 10 9 12 31 3 47 -4 51 -13 8z"/>
<path d="M4442 6530 c0 -14 2 -19 5 -12 2 6 2 18 0 25 -3 6 -5 1 -5 -13z"/>
<path d="M4452 6420 c0 -14 2 -19 5 -12 2 6 2 18 0 25 -3 6 -5 1 -5 -13z"/>
<path d="M4450 6357 c0 -20 4 -37 9 -37 5 0 7 15 4 33 -7 45 -13 47 -13 4z"/>
<path d="M8585 5228 c-3 -7 -4 -26 -2 -43 2 -29 5 -30 50 -31 l47 -1 0 44 0
43 -45 0 c-27 0 -47 -5 -50 -12z m65 -34 c0 -9 -7 -14 -17 -12 -25 5 -28 28
-4 28 12 0 21 -6 21 -16z"/>
<path d="M8774 4995 l0 -245 48 0 48 0 0 245 0 245 -49 0 -48 0 1 -245z m72
216 c-3 -4 -6 -103 -6 -220 -1 -191 -3 -211 -18 -211 -15 0 -17 20 -17 212 0
228 -3 212 43 227 2 1 1 -3 -2 -8z"/>
<path d="M9200 5160 c0 -44 -3 -80 -7 -80 -3 0 -15 7 -25 16 -10 10 -39 19
-65 21 -91 9 -153 -59 -160 -175 -4 -56 -1 -74 19 -112 45 -87 130 -114 202
-65 35 24 36 24 36 4 0 -18 5 -20 48 -17 l47 3 1 225 c1 124 0 233 -3 243 -3
13 -15 17 -49 17 l-44 0 0 -80z m63 24 c2 -14 -2 -31 -9 -39 -9 -9 -10 -15 -3
-17 12 -4 16 -129 5 -147 -4 -5 -3 -12 1 -14 5 -3 6 -40 3 -82 -3 -42 -2 -79
3 -82 11 -7 0 -20 -22 -26 -12 -3 -18 1 -17 11 2 25 -33 26 -58 3 -12 -12 -26
-18 -29 -14 -4 3 -7 2 -7 -4 0 -8 -46 -6 -96 5 -16 3 -55 42 -43 43 10 0 11 2
2 6 -7 2 -13 15 -13 27 0 13 -3 26 -6 29 -12 12 -9 79 4 89 9 8 9 14 1 24 -9
11 -8 14 0 14 7 0 9 5 6 10 -3 6 -1 10 6 10 7 0 9 3 6 7 -9 9 23 44 34 37 5
-3 9 0 9 7 0 7 3 9 7 6 3 -4 12 1 20 11 8 9 12 11 8 5 -4 -8 1 -14 12 -15 17
-1 45 -4 68 -7 6 0 12 -11 12 -23 2 -15 -1 -18 -6 -10 -4 7 -23 12 -42 11 -19
-2 -41 1 -49 6 -12 6 -13 5 -3 -5 14 -15 0 -40 -22 -40 -7 0 -18 -14 -24 -31
-14 -39 -14 -109 -1 -109 5 0 7 -6 4 -13 -3 -8 5 -25 16 -38 12 -13 19 -18 15
-11 -3 6 -1 12 4 12 6 0 11 -7 11 -16 0 -8 5 -12 10 -9 6 3 10 1 10 -4 0 -20
48 -11 71 14 13 13 30 25 37 25 7 0 10 5 7 10 -3 6 -2 10 4 10 14 0 26 89 13
102 -6 6 -8 17 -5 24 3 8 0 14 -7 14 -6 0 -8 5 -5 10 4 6 1 9 -6 8 -23 -5 -20
27 3 37 20 8 24 20 28 73 3 35 2 69 -2 77 -6 9 -3 12 11 8 10 -3 21 -16 24
-29z m-79 -198 c15 -31 17 -47 10 -84 -24 -121 -154 -100 -154 25 1 107 100
148 144 59z"/>
<path d="M9440 5102 c-55 -30 -85 -92 -84 -178 0 -116 58 -184 156 -184 84 0
143 38 166 108 l11 32 -47 0 c-42 0 -49 -3 -64 -30 -23 -41 -79 -43 -104 -5
-21 31 -23 125 -4 161 25 45 100 41 115 -5 5 -18 15 -21 56 -21 49 0 49 0 43
28 -16 70 -57 100 -145 108 -51 4 -71 2 -99 -14z m150 -17 c5 3 10 1 10 -6 0
-7 3 -9 7 -6 9 9 44 -23 37 -34 -3 -5 -1 -9 4 -9 5 0 9 -6 9 -13 0 -8 -11 -11
-34 -9 -23 3 -33 9 -29 17 3 8 -3 19 -12 27 -16 12 -16 11 -2 -7 12 -17 10
-16 -11 3 -34 30 -77 29 -89 -2 -5 -13 -19 -31 -31 -40 -19 -13 -22 -24 -22
-77 0 -41 4 -66 14 -73 22 -18 56 -60 40 -51 -10 5 -12 4 -7 -3 9 -15 86 -16
86 -2 0 6 12 15 26 20 18 7 24 15 20 26 -4 10 -2 13 7 7 6 -4 21 -7 32 -6 11
2 14 0 7 -3 -6 -3 -10 -10 -7 -14 3 -5 -4 -14 -15 -20 -11 -6 -20 -18 -20 -26
0 -9 -6 -14 -12 -12 -7 3 -39 2 -70 -2 -33 -3 -58 -2 -58 3 0 5 -6 7 -14 4 -8
-3 -24 5 -36 18 -16 17 -18 24 -8 28 8 4 7 6 -5 6 -10 1 -15 6 -12 11 3 6 2
10 -2 10 -10 0 -12 143 -2 150 4 3 9 11 11 19 8 33 53 65 98 69 25 2 47 6 49
8 2 2 10 -1 17 -7 7 -6 18 -8 24 -4z m-160 -19 c0 -3 -4 -8 -10 -11 -5 -3 -10
-1 -10 4 0 6 5 11 10 11 6 0 10 -2 10 -4z"/>
<path d="M9446 5038 c3 -5 10 -6 15 -3 13 9 11 12 -6 12 -8 0 -12 -4 -9 -9z"/>
<path d="M9813 5105 c-35 -15 -58 -45 -69 -88 -6 -28 -6 -28 40 -26 36 2 50 8
62 26 13 20 22 24 57 21 35 -2 43 -7 45 -25 4 -27 -14 -35 -103 -52 -94 -17
-132 -72 -109 -158 9 -32 64 -63 110 -63 45 0 94 27 73 40 -7 5 -2 7 14 7 18
-2 27 -8 27 -19 0 -15 9 -18 55 -18 52 0 55 1 45 19 -5 11 -10 77 -10 148 0
145 -7 163 -67 188 -44 19 -128 19 -170 0z m166 -30 c25 0 41 -14 34 -30 -3
-8 0 -15 7 -15 6 0 8 -5 5 -10 -4 -6 -6 -62 -6 -124 1 -108 0 -114 -20 -119
-15 -4 -23 0 -26 14 -3 10 -11 19 -18 19 -8 0 -21 3 -31 7 -11 4 -15 3 -11 -4
4 -7 0 -10 -10 -8 -73 15 -73 15 -73 44 0 33 13 45 55 55 17 4 38 9 48 12 14
4 17 -1 17 -30 0 -19 -4 -38 -10 -41 -18 -11 -11 -23 10 -18 11 3 17 9 14 14
-3 5 -1 9 5 9 15 0 11 79 -5 88 -8 4 -11 16 -8 30 4 12 10 19 15 16 5 -3 9 6
9 20 0 14 -4 26 -10 26 -5 0 -9 6 -7 13 1 6 -4 11 -10 10 -7 -2 -13 1 -13 6 0
4 -18 8 -40 8 -29 0 -44 -5 -50 -17 -12 -22 -59 -35 -73 -21 -8 8 -7 11 3 11
7 0 10 3 7 7 -9 9 13 34 24 27 5 -3 9 -1 9 4 0 4 24 9 52 11 29 1 54 4 57 7 2
2 11 -2 19 -9 8 -6 22 -12 31 -12z m58 -157 c-2 -18 -4 -4 -4 32 0 36 2 50 4
33 2 -18 2 -48 0 -65z m-97 32 c0 -5 -8 -10 -17 -10 -15 0 -16 2 -3 10 19 12
20 12 20 0z m-55 -20 c-3 -5 -12 -7 -20 -3 -8 3 -15 0 -15 -7 0 -6 -4 -9 -9
-5 -5 3 -12 -4 -16 -15 -3 -11 -10 -20 -15 -20 -19 0 -3 -56 23 -81 l27 -27
-25 -4 c-14 -3 -25 -1 -25 5 0 6 -3 7 -6 4 -11 -11 -44 40 -44 68 0 18 -4 24
-12 20 -7 -4 -5 0 5 8 9 8 17 19 17 24 0 21 26 33 40 20 9 -8 11 -8 6 0 -4 7
3 13 16 16 42 8 59 7 53 -3z m152 -97 c-3 -10 -5 -2 -5 17 0 19 2 27 5 18 2
-10 2 -26 0 -35z m-262 -43 c3 -5 1 -10 -4 -10 -6 0 -11 5 -11 10 0 6 2 10 4
10 3 0 8 -4 11 -10z m96 -33 c-10 -9 -11 -8 -5 6 3 10 9 15 12 12 3 -3 0 -11
-7 -18z"/>
<path d="M10272 5105 c-33 -15 -49 -16 -44 -2 1 4 -20 7 -48 7 l-50 0 0 -180
0 -180 50 0 50 0 0 123 c0 88 4 128 14 142 16 22 74 25 87 4 8 -13 14 -156 9
-236 l-2 -33 51 0 51 0 0 114 c0 63 4 126 9 139 17 43 83 48 96 7 3 -11 6 -74
6 -140 l1 -120 49 0 49 0 0 150 0 150 -29 32 c-26 30 -35 33 -85 33 -46 0 -59
-4 -84 -28 -25 -24 -30 -26 -36 -12 -3 9 -11 13 -17 9 -8 -4 -9 -3 -5 4 18 29
-67 41 -122 17z m88 -19 c0 -5 3 -7 6 -3 4 3 20 -8 37 -24 28 -29 31 -29 40
-12 13 22 39 43 49 37 4 -2 9 0 12 5 3 5 21 5 41 1 19 -4 35 -5 35 -2 0 3 9
-3 20 -13 11 -10 17 -22 14 -26 -3 -5 0 -9 6 -9 6 0 9 -4 5 -9 -3 -6 -6 -64
-6 -130 0 -113 -1 -121 -19 -121 -13 0 -20 7 -20 20 0 11 6 20 13 20 9 0 9 2
0 8 -12 8 -23 152 -11 152 4 0 2 12 -4 28 -15 34 -31 54 -23 27 5 -16 4 -16
-7 3 -8 12 -17 19 -21 16 -4 -4 -7 -2 -7 4 0 20 -27 14 -58 -13 -19 -16 -37
-23 -49 -19 -17 5 -17 5 0 -6 14 -9 15 -15 7 -25 -7 -9 -10 -51 -8 -117 3
-104 3 -104 -19 -100 -22 4 -23 9 -25 96 0 50 0 103 1 119 2 19 -2 27 -14 27
-9 0 -19 8 -22 18 -6 25 -46 26 -91 2 -20 -11 -32 -20 -27 -20 6 0 5 -4 -2 -8
-12 -7 -16 -72 -13 -177 2 -54 3 -57 10 -25 l8 35 -1 -34 c-2 -31 -5 -34 -32
-35 l-30 -1 0 155 0 156 27 -4 c18 -3 25 -9 21 -18 -3 -9 2 -14 16 -14 12 0
24 7 28 16 3 8 12 13 19 10 8 -3 19 0 25 7 13 14 69 16 69 3z m-143 -213 c-2
-16 -4 -3 -4 27 0 30 2 43 4 28 2 -16 2 -40 0 -55z"/>
<path d="M10856 5095 c-34 -23 -36 -23 -36 -5 0 17 -7 20 -45 20 l-45 0 0
-251 0 -250 48 3 47 3 0 83 c0 45 2 82 4 82 3 0 13 -8 24 -17 14 -13 36 -18
77 -18 54 0 62 3 95 35 40 39 55 81 55 159 0 142 -121 226 -224 156z m131 -11
c27 -4 43 -13 43 -25 0 -7 -5 -8 -13 -3 -7 5 -5 2 5 -7 9 -9 14 -19 11 -23 -4
-3 -2 -6 4 -6 7 0 10 -34 10 -90 -1 -49 -4 -90 -9 -90 -4 0 -7 -3 -6 -7 1 -5
-10 -21 -25 -37 -15 -16 -27 -25 -27 -21 0 4 -10 0 -22 -11 -12 -10 -18 -13
-13 -5 6 11 2 13 -19 9 -14 -3 -26 -1 -26 4 0 6 -7 8 -15 4 -8 -3 -24 4 -34
16 -22 23 -50 18 -50 -9 1 -10 0 -46 -1 -80 -2 -54 -5 -63 -21 -63 -10 0 -22
0 -26 -1 -4 0 -9 5 -11 13 -3 9 -1 9 6 -1 7 -10 11 9 14 65 4 98 -6 388 -12
319 -3 -48 -4 -49 -7 -11 -6 58 0 67 37 55 16 -6 27 -15 24 -20 -3 -5 4 -9 16
-9 11 0 23 7 27 16 3 8 12 13 19 10 8 -3 14 -1 14 4 0 6 3 9 8 9 4 -1 20 -1
35 0 20 1 26 5 21 14 -5 7 -1 6 10 -3 10 -8 25 -15 33 -16z m-240 -216 c-2
-24 -4 -7 -4 37 0 44 2 63 4 43 2 -21 2 -57 0 -80z m0 -160 c-2 -24 -4 -7 -4
37 0 44 2 63 4 43 2 -21 2 -57 0 -80z"/>
<path d="M10850 5039 c-8 -12 -24 -30 -35 -41 -15 -14 -19 -32 -19 -75 0 -36
4 -58 12 -61 7 -2 10 -8 6 -13 -3 -5 2 -9 10 -9 8 0 19 -6 23 -14 8 -14 60
-46 76 -46 4 0 7 7 7 16 0 8 5 12 10 9 6 -3 10 1 10 9 0 9 5 16 11 16 5 0 7
-5 3 -12 -4 -7 -3 -8 5 -4 6 4 9 11 6 16 -3 5 2 13 12 18 20 12 33 132 14 132
-7 0 -10 4 -7 9 3 5 -5 16 -19 25 -14 9 -25 23 -25 31 0 25 -82 20 -100 -6z
m105 -29 c22 -25 31 -101 16 -139 -12 -27 -47 -51 -76 -51 -8 0 -26 11 -42 24
-25 22 -28 30 -27 85 1 44 6 67 19 81 24 27 86 27 110 0z"/>
<path d="M8050 4983 c20 -71 43 -152 49 -180 l13 -53 54 0 c43 0 54 3 54 16 0
15 34 167 47 209 4 13 13 -8 25 -65 37 -170 32 -160 87 -160 48 0 49 1 59 38
9 33 76 261 89 305 5 15 -2 17 -46 17 -28 0 -51 -3 -52 -7 0 -5 -2 -15 -4 -23
-2 -8 -13 -57 -24 -109 -11 -51 -22 -95 -24 -97 -2 -3 -12 33 -21 78 -9 46
-21 100 -27 121 -10 36 -11 37 -58 37 l-48 0 -25 -122 -24 -123 -29 123 -28
122 -52 0 -52 0 37 -127z m253 89 c-3 -7 0 -18 6 -26 6 -7 8 -16 5 -19 -4 -3
-3 -14 1 -24 4 -10 9 -33 11 -52 2 -18 7 -38 12 -45 5 -6 6 -20 1 -31 -7 -17
-8 -17 -8 8 -1 15 -5 27 -9 27 -5 0 -9 8 -9 18 1 50 -4 73 -13 67 -6 -4 -9 -1
-8 7 2 7 -7 14 -20 16 -17 3 -25 -2 -29 -18 -4 -16 -8 -18 -14 -9 -4 7 -3 19
3 26 5 7 8 19 5 28 -4 8 -2 17 4 20 5 4 7 9 5 13 -2 4 11 7 29 7 22 0 31 -4
28 -13z m-209 2 c9 -3 13 -10 10 -16 -3 -5 -3 -17 1 -26 4 -9 9 -32 11 -51 2
-19 8 -39 13 -44 6 -6 6 -19 0 -36 -6 -14 -7 -22 -3 -18 4 4 12 -3 18 -16 12
-23 53 -31 49 -9 -2 6 1 12 5 12 18 0 19 -12 5 -41 -8 -16 -13 -35 -10 -42 3
-8 -7 -12 -28 -12 -30 0 -33 2 -31 31 1 18 -3 30 -9 28 -5 -2 -11 10 -12 28
-1 17 -6 34 -10 37 -8 6 -9 10 -11 57 -1 14 -5 23 -9 21 -5 -3 -9 9 -10 26 -2
18 -7 33 -12 35 -11 4 -2 42 9 42 5 0 15 -3 24 -6z m402 -6 c5 -7 2 -9 -7 -6
-10 4 -14 -4 -14 -31 1 -20 -3 -39 -7 -42 -5 -3 -10 -20 -11 -37 -1 -18 -5
-32 -8 -32 -6 0 -22 -59 -24 -87 0 -6 -4 -15 -8 -19 -4 -4 -7 -14 -7 -23 0
-11 -10 -16 -33 -16 -26 0 -33 4 -30 16 3 9 0 20 -6 23 -19 12 0 36 23 30 23
-5 55 20 43 33 -4 3 -2 12 3 19 6 6 12 28 14 46 2 19 6 40 10 47 4 7 5 18 2
26 -3 8 -1 17 4 20 6 4 10 15 10 26 0 21 34 27 46 7z m-263 -131 c-3 -5 -9 -3
-14 4 -4 7 -5 17 -2 22 3 5 9 3 14 -4 4 -7 5 -17 2 -22z m-13 -42 c0 -8 -2
-15 -4 -15 -2 0 -6 7 -10 15 -3 8 -1 15 4 15 6 0 10 -7 10 -15z"/>
<path d="M8582 4948 c0 -90 2 -171 4 -180 4 -14 16 -18 50 -18 l44 0 0 180 0
180 -49 0 -49 0 0 -162z m67 -18 c0 -142 -1 -150 -19 -150 -19 0 -20 8 -20
150 0 143 1 150 20 150 19 0 20 -7 19 -150z"/>
</g>
</svg>
